<svg width="241" height="110" viewBox="0 0 241 110" fill="none" xmlns="http://www.w3.org/2000/svg">
<path d="M149.939 52.6594L150.661 53.3517L150.624 53.3898L150.584 53.4238L149.939 52.6594ZM150.77 92.8665L150.089 93.5984L150.042 93.5555L150.002 93.5072L150.77 92.8665ZM234.899 58.0446C235.393 57.7985 235.994 57.9998 236.24 58.4942L240.25 66.5513C240.496 67.0457 240.295 67.6461 239.8 67.8922C239.306 68.1382 238.706 67.9369 238.46 67.4425L234.895 60.2806L227.733 63.8454C227.239 64.0915 226.638 63.8901 226.392 63.3957C226.146 62.9013 226.347 62.301 226.842 62.0549L234.899 58.0446ZM168.227 13.9266L167.234 14.043L168.227 13.9266ZM133.565 19.2278L132.621 18.897L133.565 19.2278ZM1.98107 0.423097C2.30322 1.17461 2.63107 1.92309 2.96454 2.6684L1.13895 3.48523C0.801187 2.73034 0.469126 1.97224 0.142843 1.21107L1.98107 0.423097ZM5.03438 7.10547C5.74872 8.57572 6.48509 10.032 7.24287 11.4733L5.47263 12.404C4.70498 10.944 3.95904 9.46875 3.23547 7.9795L5.03438 7.10547ZM9.59185 15.7722C10.3996 17.1956 11.2286 18.6026 12.078 19.9919L10.3717 21.0351C9.51084 19.6272 8.67089 18.2016 7.85243 16.7594L9.59185 15.7722ZM14.7004 24.126C15.5996 25.493 16.5191 26.8408 17.4582 28.1682L15.8254 29.3232C14.8733 27.9773 13.9411 26.6109 13.0295 25.2252L14.7004 24.126ZM20.3509 32.1115C21.3423 33.4149 22.3532 34.6962 23.3827 35.9541L21.8349 37.2208C20.7902 35.9443 19.7647 34.6444 18.7591 33.3223L20.3509 32.1115ZM26.5511 39.6846C27.6341 40.913 28.7355 42.116 29.8547 43.2923L28.4057 44.6709C27.2689 43.476 26.1504 42.2543 25.0509 41.0072L26.5511 39.6846ZM33.293 46.7677C34.4667 47.9079 35.6578 49.0192 36.8658 50.1003L35.532 51.5906C34.3034 50.491 33.0923 49.3611 31.8994 48.2022L33.293 46.7677ZM40.5722 53.2789C41.8363 54.3166 43.1169 55.3215 44.4131 56.2923L43.2142 57.8932C41.8938 56.9043 40.5898 55.8809 39.3032 54.8247L40.5722 53.2789ZM48.3896 59.1289C49.7426 60.0468 51.1111 60.9277 52.4941 61.7701L51.4537 63.4782C50.0423 62.6184 48.6464 61.7198 47.2668 60.784L48.3896 59.1289ZM56.7229 64.2006C58.1583 64.9769 59.6078 65.7119 61.0705 66.404L60.215 68.2118C58.7193 67.5041 57.2378 66.7528 55.7715 65.9598L56.7229 64.2006ZM65.5298 68.3635C67.0381 68.9759 68.5591 69.5427 70.0917 70.0623L69.4495 71.9564C67.8791 71.424 66.3214 70.8435 64.7774 70.2166L65.5298 68.3635ZM74.7449 71.4837C76.3112 71.91 77.8885 72.2868 79.4757 72.6124L79.0737 74.5716C77.4445 74.2373 75.8262 73.8507 74.2197 73.4136L74.7449 71.4837ZM84.268 73.4347C85.8713 73.656 87.4836 73.8249 89.104 73.9395L88.9628 75.9346C87.2977 75.8167 85.6412 75.6433 83.9945 75.4159L84.268 73.4347ZM93.9606 74.1193C95.5722 74.1246 97.1909 74.0757 98.8159 73.971L98.9445 75.9669C97.2743 76.0744 95.6105 76.1247 93.9541 76.1193L93.9606 74.1193ZM103.65 73.496C105.242 73.2855 106.839 73.0207 108.441 72.7001L108.834 74.6612C107.189 74.9904 105.548 75.2625 103.912 75.4788L103.65 73.496ZM113.174 71.5925C114.723 71.1771 116.276 70.7086 117.831 70.1857L118.468 72.0815C116.874 72.6175 115.281 73.098 113.692 73.5243L113.174 71.5925ZM122.403 68.4939C123.891 67.8924 125.381 67.2401 126.872 66.5358L127.726 68.3443C126.201 69.0646 124.676 69.7322 123.152 70.3482L122.403 68.4939ZM131.206 64.3436C132.613 63.5841 134.021 62.7774 135.429 61.9224L136.467 63.6319C135.031 64.5042 133.594 65.3278 132.156 66.1036L131.206 64.3436ZM139.544 59.2856C140.878 58.3852 142.212 57.4405 143.546 56.4508L144.738 58.0566C143.381 59.0639 142.022 60.026 140.663 60.9435L139.544 59.2856ZM147.383 53.4743C148.021 52.9584 148.658 52.4319 149.295 51.8949L150.584 53.4238C149.937 53.9695 149.289 54.5045 148.641 55.029L147.383 53.4743ZM149.218 51.967C149.824 51.3349 150.441 50.6699 151.064 49.9752L152.553 51.31C151.916 52.0213 151.283 52.703 150.661 53.3517L149.218 51.967ZM154.565 45.8097C155.663 44.4169 156.75 42.9521 157.798 41.4325L159.444 42.5682C158.371 44.1247 157.259 45.6237 156.136 47.0481L154.565 45.8097ZM160.727 36.8555C161.648 35.2922 162.509 33.6947 163.285 32.0786L165.088 32.9446C164.285 34.6167 163.397 36.2642 162.449 37.8713L160.727 36.8555ZM165.37 27.1011C165.982 25.3742 166.472 23.6482 166.815 21.9409L168.776 22.3347C168.412 24.1468 167.894 25.9647 167.255 27.7691L165.37 27.1011ZM167.378 16.6687C167.382 15.7809 167.335 14.9049 167.234 14.043L169.22 13.8103C169.331 14.7568 169.382 15.7135 169.378 16.677L167.378 16.6687ZM167.234 14.043C167.142 13.2614 167.001 12.5348 166.816 11.8607L168.745 11.3317C168.958 12.109 169.118 12.9351 169.22 13.8103L167.234 14.043ZM164.923 8.01865C164.018 6.87982 162.893 6.01082 161.602 5.3924L162.466 3.58876C164.013 4.32977 165.384 5.38383 166.489 6.77481L164.923 8.01865ZM157.401 4.28419C155.988 4.15528 154.486 4.22243 152.947 4.47742L152.62 2.50432C154.308 2.22468 155.981 2.1464 157.583 2.29246L157.401 4.28419ZM148.59 5.67231C147.203 6.20259 145.831 6.87178 144.513 7.66937L143.478 5.9583C144.897 5.09947 146.376 4.37748 147.876 3.80409L148.59 5.67231ZM140.851 10.3542C139.72 11.3501 138.675 12.4525 137.748 13.6512L136.166 12.4273C137.175 11.1233 138.308 9.92884 139.529 8.85336L140.851 10.3542ZM135.371 17.4797C135.047 18.1525 134.758 18.8458 134.508 19.5586L132.621 18.897C132.896 18.1122 133.214 17.3499 133.57 16.6115L135.371 17.4797ZM134.508 19.5586C134.242 20.3191 133.987 21.0912 133.744 21.8747L131.833 21.2825C132.084 20.4754 132.347 19.6801 132.621 18.897L134.508 19.5586ZM132.471 26.5885C132.111 28.1489 131.803 29.7473 131.553 31.3814L129.576 31.0794C129.834 29.3948 130.151 27.7472 130.522 26.1392L132.471 26.5885ZM130.999 36.2293C130.878 37.8266 130.814 39.4535 130.815 41.108L128.815 41.1081C128.814 39.4022 128.88 37.7247 129.005 36.0777L130.999 36.2293ZM130.999 45.9835C131.119 47.5777 131.3 49.1946 131.547 50.8326L129.569 51.1303C129.315 49.4431 129.129 47.7772 129.005 46.1341L130.999 45.9835ZM132.448 55.6317C132.799 57.1904 133.21 58.7663 133.686 60.3582L131.77 60.9313C131.281 59.2953 130.858 57.6747 130.497 56.0708L132.448 55.6317ZM135.243 64.994C135.801 66.4922 136.418 68.003 137.096 69.5256L135.269 70.3396C134.574 68.7793 133.942 67.2299 133.369 65.6923L135.243 64.994ZM139.221 73.9387C139.956 75.3576 140.745 76.7857 141.592 78.2222L139.869 79.2375C139.004 77.7701 138.197 76.3101 137.445 74.8583L139.221 73.9387ZM144.192 82.3845C145.074 83.7217 146.008 85.0654 146.993 86.415L145.378 87.5945C144.374 86.2199 143.423 84.8503 142.522 83.4864L144.192 82.3845ZM149.977 90.3156C150.485 90.9512 151.006 91.588 151.538 92.2259L150.002 93.5072C149.461 92.8588 148.932 92.2113 148.415 91.5648L149.977 90.3156ZM151.452 92.1347C152.06 92.7016 152.696 93.2689 153.357 93.8335L152.058 95.3541C151.375 94.7711 150.718 94.1848 150.089 93.5984L151.452 92.1347ZM157.377 96.9938C158.731 97.9721 160.155 98.9211 161.641 99.8224L160.604 101.532C159.07 100.602 157.601 99.6234 156.206 98.6147L157.377 96.9938ZM166.116 102.287C167.629 103.037 169.188 103.729 170.785 104.345L170.065 106.211C168.407 105.571 166.792 104.855 165.227 104.078L166.116 102.287ZM175.622 105.939C177.253 106.383 178.911 106.741 180.59 106.998L180.288 108.975C178.529 108.706 176.796 108.331 175.096 107.868L175.622 105.939ZM185.638 107.451C187.31 107.493 188.996 107.426 190.687 107.235L190.911 109.223C189.125 109.424 187.348 109.495 185.588 109.451L185.638 107.451ZM195.646 106.314C197.242 105.898 198.839 105.36 200.431 104.691L201.206 106.534C199.526 107.241 197.839 107.809 196.152 108.249L195.646 106.314ZM204.943 102.419C206.351 101.589 207.753 100.643 209.144 99.5742L210.362 101.16C208.909 102.277 207.439 103.269 205.959 104.142L204.943 102.419ZM212.99 96.2662C214.175 95.1333 215.35 93.901 216.511 92.5637L218.021 93.8747C216.821 95.2571 215.604 96.5346 214.372 97.7121L212.99 96.2662ZM219.713 88.5524C220.689 87.2268 221.653 85.8193 222.603 84.3261L224.291 85.3995C223.318 86.9295 222.328 88.3746 221.324 89.7383L219.713 88.5524ZM225.226 79.9139C226.034 78.4616 226.83 76.9408 227.612 75.3494L229.407 76.2316C228.611 77.8523 227.799 79.4032 226.974 80.8864L225.226 79.9139ZM229.78 70.6743C230.447 69.1508 231.102 67.5705 231.745 65.9319L233.607 66.6622C232.955 68.3241 232.29 69.9282 231.613 71.4761L229.78 70.6743ZM233.539 61.1121C233.828 60.2951 234.114 59.4651 234.396 58.6218L236.293 59.2577C236.007 60.1109 235.717 60.9511 235.425 61.7783L233.539 61.1121Z" fill="#212964"/>
</svg>
