<?xml version="1.0" standalone="yes"?>
<svg width="40" height="40" viewBox="0 0 40 40" fill="none" xmlns="http://www.w3.org/2000/svg">
<path fill-rule="evenodd" clip-rule="evenodd" d="M20 39.9981C31.0457 39.9981 40 31.0561 40 20.0257C40 8.99518 31.0457 0.0532227 20 0.0532227C8.9543 0.0532227 0 8.99518 0 20.0257C0 31.0561 8.9543 39.9981 20 39.9981ZM15.1598 27.8197C15.2621 27.9446 15.4008 28.0147 15.5455 28.0147C15.6374 28.0147 15.7278 27.9863 15.8084 27.9322L26.7176 20.6089C26.8031 20.5514 26.8745 20.467 26.9241 20.3644C26.9738 20.2618 27 20.1449 27 20.0257C27 19.9065 26.9738 19.7896 26.9241 19.687C26.8745 19.5844 26.8031 19.5 26.7176 19.4425L15.8084 12.1192C15.7253 12.0635 15.6318 12.0351 15.537 12.0369C15.4423 12.0387 15.3495 12.0706 15.2679 12.1294C15.1863 12.1883 15.1187 12.2721 15.0717 12.3726C15.0247 12.473 15 12.5867 15 12.7024V27.349C15 27.5255 15.0575 27.6949 15.1598 27.8197Z" fill="white"/>
</svg>
