<?xml version="1.0" standalone="yes"?>
<svg width="45" height="46" viewBox="0 0 45 46" fill="none" xmlns="http://www.w3.org/2000/svg">
<path d="M41.8723 26.6261C36.2891 25.7795 31.1353 23.663 30.7058 16.467C29.8468 11.3875 28.129 9.69434 25.9816 16.467C23.8342 23.2397 21.6867 25.7795 15.674 26.6261C9.66127 27.4726 11.8087 29.5891 16.533 29.5891C21.2572 29.5891 26.411 35.9385 26.411 41.018C26.411 46.0975 30.7058 49.0606 30.7058 41.018C30.7058 32.9754 38.4365 29.5891 41.4428 29.5891C44.4492 29.5891 47.4556 27.4726 41.8723 26.6261Z" fill="#FF8352"/>
<path d="M10.8627 5.16214C8.83239 4.86334 6.95829 4.11635 6.80211 1.5766C6.48974 -0.216173 5.86509 -0.813762 5.08422 1.5766C4.30335 3.96696 3.52245 4.86334 1.336 5.16214C-0.850447 5.46093 -0.0695731 6.20792 1.64835 6.20792C3.36627 6.20792 5.24037 8.44888 5.24037 10.2417C5.24037 12.0344 6.80211 13.0802 6.80211 10.2417C6.80211 7.4031 9.61326 6.20792 10.7065 6.20792C11.7997 6.20792 12.8929 5.46093 10.8627 5.16214Z" fill="#FF8352"/>
</svg>
