<?xml version="1.0" standalone="yes"?>
<svg width="130" height="113" viewBox="0 0 130 113" fill="none" xmlns="http://www.w3.org/2000/svg">
<path fill-rule="evenodd" clip-rule="evenodd" d="M31.0312 63.3616C58.2571 63.4285 80.3161 85.5373 80.3916 112.829C80.4673 85.4959 102.593 63.3614 129.876 63.3614L130 63.3616V63.3612L129.876 63.3613C102.605 63.3613 80.4872 41.2469 80.3917 13.9307C80.2964 41.2055 58.2449 63.2944 31.0313 63.3612L31.0312 63.3616Z" fill="#FF8352"/>
<path d="M2.00012 23.7734L0.500123 23.7716L0.498272 25.2698L1.99644 25.2734L2.00012 23.7734ZM23.7188 45.574L22.2188 45.5758L25.2188 45.5758L23.7188 45.574ZM45.492 23.7734L45.4939 22.2734H45.492V23.7734ZM45.5464 23.7734L45.5446 25.2734L47.0464 25.2753V23.7734H45.5464ZM45.5464 23.7723H47.0464V22.2705L45.5446 22.2723L45.5464 23.7723ZM45.492 23.7724V25.2724L45.4939 25.2724L45.492 23.7724ZM23.7189 2L25.2189 1.99629L25.2152 0.495773L23.7146 0.500006L23.7189 2ZM23.7188 2L23.7145 0.500006L22.2225 0.504216L22.2188 1.99629L23.7188 2ZM2.00012 23.7723L1.99644 22.2723L0.501971 22.276L0.500125 23.7705L2.00012 23.7723ZM23.7188 45.6213L25.2188 45.6195L22.2188 45.6201L23.7188 45.6213ZM23.7188 45.6551L22.2188 45.6516L22.2152 47.1551H23.7188V45.6551ZM23.7189 45.6551V47.1551H25.2207L25.2189 45.6533L23.7189 45.6551ZM1.99644 25.2734C13.1577 25.3008 22.2053 34.3742 22.2188 45.5758L25.2188 45.5722C25.2033 32.7249 14.8245 22.3049 2.00381 22.2734L1.99644 25.2734ZM45.492 22.2734C32.6446 22.2734 22.2344 32.7054 22.2188 45.5722L25.2188 45.5758C25.2324 34.3573 34.3073 25.2734 45.492 25.2734V22.2734ZM45.5482 22.2734L45.4939 22.2734L45.4902 25.2734L45.5446 25.2734L45.5482 22.2734ZM44.0464 23.7723V23.7734H47.0464V23.7723H44.0464ZM45.4939 25.2724L45.5482 25.2723L45.5446 22.2723L45.4902 22.2724L45.4939 25.2724ZM22.2189 2.00371C22.2506 14.8566 32.6547 25.2724 45.492 25.2724V22.2724C34.3161 22.2724 25.2466 13.2027 25.2189 1.99629L22.2189 2.00371ZM23.723 3.49999L23.7231 3.49999L23.7146 0.500006L23.7145 0.500006L23.723 3.49999ZM2.00381 25.2723C14.8144 25.2409 25.1871 14.8372 25.2188 2.00371L22.2188 1.99629C22.1911 13.1857 13.149 22.2449 1.99644 22.2723L2.00381 25.2723ZM3.50012 23.7753L3.50012 23.7742L0.500125 23.7705L0.500123 23.7716L3.50012 23.7753ZM22.2188 45.6201C22.2188 45.6304 22.2188 45.6408 22.2188 45.6516L25.2188 45.6587C25.2188 45.6469 25.2188 45.6349 25.2188 45.6226L22.2188 45.6201ZM23.7189 44.1551H23.7189H23.7189H23.7189H23.7189C23.7189 44.1551 23.7189 44.1551 23.7189 44.1551C23.7189 44.1551 23.7189 44.1551 23.7189 44.1551C23.7189 44.1551 23.7189 44.1551 23.7189 44.1551C23.7189 44.1551 23.7189 44.1551 23.7189 44.1551C23.7189 44.1551 23.7189 44.1551 23.7189 44.1551C23.7189 44.1551 23.7189 44.1551 23.7189 44.1551C23.7189 44.1551 23.7189 44.1551 23.7189 44.1551H23.7188H23.7188C23.7188 44.1551 23.7188 44.1551 23.7188 44.1551C23.7188 44.1551 23.7188 44.1551 23.7188 44.1551C23.7188 44.1551 23.7188 44.1551 23.7188 44.1551H23.7188H23.7188C23.7188 44.1551 23.7188 44.1551 23.7188 44.1551C23.7188 44.1551 23.7188 44.1551 23.7188 44.1551C23.7188 44.1551 23.7188 44.1551 23.7188 44.1551H23.7188C23.7188 44.1551 23.7188 44.1551 23.7188 44.1551C23.7188 44.1551 23.7188 44.1551 23.7188 44.1551C23.7188 44.1551 23.7188 44.1551 23.7188 44.1551H23.7188C23.7188 44.1551 23.7188 44.1551 23.7188 44.1551C23.7188 44.1551 23.7188 44.1551 23.7188 44.1551C23.7188 44.1551 23.7188 44.1551 23.7188 44.1551H23.7188C23.7188 44.1551 23.7188 44.1551 23.7188 44.1551C23.7188 44.1551 23.7188 44.1551 23.7188 44.1551C23.7188 44.1551 23.7188 44.1551 23.7188 44.1551H23.7188H23.7188C23.7188 44.1551 23.7188 44.1551 23.7188 44.1551C23.7188 44.1551 23.7188 44.1551 23.7188 44.1551C23.7188 44.1551 23.7188 44.1551 23.7188 44.1551H23.7188H23.7188C23.7188 44.1551 23.7188 44.1551 23.7188 44.1551C23.7188 44.1551 23.7188 44.1551 23.7188 44.1551C23.7188 44.1551 23.7188 44.1551 23.7188 44.1551C23.7188 44.1551 23.7188 44.1551 23.7188 44.1551H23.7188H23.7188H23.7188H23.7188H23.7188H23.7188H23.7188H23.7188V47.1551H23.7188H23.7188H23.7188H23.7188H23.7188H23.7188H23.7188H23.7188C23.7188 47.1551 23.7188 47.1551 23.7188 47.1551C23.7188 47.1551 23.7188 47.1551 23.7188 47.1551C23.7188 47.1551 23.7188 47.1551 23.7188 47.1551C23.7188 47.1551 23.7188 47.1551 23.7188 47.1551H23.7188H23.7188C23.7188 47.1551 23.7188 47.1551 23.7188 47.1551C23.7188 47.1551 23.7188 47.1551 23.7188 47.1551C23.7188 47.1551 23.7188 47.1551 23.7188 47.1551H23.7188H23.7188C23.7188 47.1551 23.7188 47.1551 23.7188 47.1551C23.7188 47.1551 23.7188 47.1551 23.7188 47.1551C23.7188 47.1551 23.7188 47.1551 23.7188 47.1551H23.7188C23.7188 47.1551 23.7188 47.1551 23.7188 47.1551C23.7188 47.1551 23.7188 47.1551 23.7188 47.1551C23.7188 47.1551 23.7188 47.1551 23.7188 47.1551H23.7188C23.7188 47.1551 23.7188 47.1551 23.7188 47.1551C23.7188 47.1551 23.7188 47.1551 23.7188 47.1551C23.7188 47.1551 23.7188 47.1551 23.7188 47.1551H23.7188C23.7188 47.1551 23.7188 47.1551 23.7188 47.1551C23.7188 47.1551 23.7188 47.1551 23.7188 47.1551C23.7188 47.1551 23.7188 47.1551 23.7188 47.1551H23.7188H23.7188C23.7188 47.1551 23.7188 47.1551 23.7188 47.1551C23.7188 47.1551 23.7188 47.1551 23.7188 47.1551C23.7188 47.1551 23.7188 47.1551 23.7188 47.1551H23.7188H23.7189C23.7189 47.1551 23.7189 47.1551 23.7189 47.1551C23.7189 47.1551 23.7189 47.1551 23.7189 47.1551C23.7189 47.1551 23.7189 47.1551 23.7189 47.1551C23.7189 47.1551 23.7189 47.1551 23.7189 47.1551C23.7189 47.1551 23.7189 47.1551 23.7189 47.1551C23.7189 47.1551 23.7189 47.1551 23.7189 47.1551C23.7189 47.1551 23.7189 47.1551 23.7189 47.1551H23.7189H23.7189H23.7189H23.7189V44.1551ZM22.2188 45.6232L22.2189 45.657L25.2189 45.6533L25.2188 45.6195L22.2188 45.6232Z" fill="#FF8352"/>
</svg>
