<?xml version="1.0" standalone="yes"?>
<svg width="196" height="169" viewBox="0 0 196 169" fill="none" xmlns="http://www.w3.org/2000/svg">
<path fill-rule="evenodd" clip-rule="evenodd" d="M46 94C87.273 94.1011 120.712 127.624 120.813 169C120.914 127.561 154.454 93.9998 195.813 93.9998L196 94V93.9992L195.813 93.9994C154.454 93.9994 120.914 60.4385 120.813 19C120.712 60.3759 87.2728 93.8981 46 93.9992L46 94Z" fill="#F0A8BC"/>
<path d="M2 34L0.500001 33.9982L0.498186 35.4963L1.99632 35.5L2 34ZM34.9175 67.0006L33.4175 67.0043H36.4175L34.9175 67.0006ZM67.9175 33.9999L67.9194 32.4999H67.9175V33.9999ZM68 34L67.9981 35.5L69.5 35.5019V34H68ZM68 33.9998H69.5V32.4979L67.9981 32.4998L68 33.9998ZM67.9175 33.9999V35.4999L67.9194 35.4999L67.9175 33.9999ZM34.9175 1L36.4175 0.996338L33.4175 0.996338L34.9175 1ZM2 33.9998L1.99632 32.4998L0.501812 32.5034L0.500001 33.9979L2 33.9998ZM1.99632 35.5C19.3276 35.5425 33.3755 49.6205 33.4175 67.0043L36.4175 66.997C36.3715 47.9691 20.9931 32.5466 2.00368 32.5L1.99632 35.5ZM67.9175 32.4999C48.8885 32.4999 33.4635 47.9403 33.4175 66.997L36.4175 67.0043C36.4596 49.5942 50.55 35.4999 67.9175 35.4999V32.4999ZM68.0019 32.5L67.9194 32.4999L67.9156 35.4999L67.9981 35.5L68.0019 32.5ZM66.5 33.9998V34H69.5V33.9998H66.5ZM67.9194 35.4999L68.0019 35.4998L67.9981 32.4998L67.9156 32.4999L67.9194 35.4999ZM33.4175 1.00366C33.464 20.0599 48.8888 35.4999 67.9175 35.4999V32.4999C50.5503 32.4999 36.46 18.406 36.4175 0.996338L33.4175 1.00366ZM2.00368 35.4998C20.9928 35.4532 36.371 20.0311 36.4175 1.00366L33.4175 0.996338C33.3751 18.3797 19.3273 32.4573 1.99632 32.4998L2.00368 35.4998ZM3.5 34.0018L3.5 34.0016L0.500001 33.9979L0.500001 33.9982L3.5 34.0018Z" fill="#F0A8BC"/>
</svg>
